<svg xmlns="http://www.w3.org/2000/svg" viewBox="0 0 280 220" role="img" aria-label="Friendly green pond frog">
  <ellipse cx="141" cy="194" rx="95" ry="17" fill="#166b68" opacity=".24"/>
  <path d="M57 162c-28 3-44 21-31 36 10 12 40 5 60-17l-29-19Z" fill="#77be3f" stroke="#145e46" stroke-width="7" stroke-linejoin="round"/>
  <path d="M223 162c28 3 44 21 31 36-10 12-40 5-60-17l29-19Z" fill="#77be3f" stroke="#145e46" stroke-width="7" stroke-linejoin="round"/>
  <ellipse cx="140" cy="140" rx="76" ry="59" fill="#8fd147" stroke="#145e46" stroke-width="8"/>
  <path d="M86 141c6 45 101 46 109 0-20 12-86 12-109 0Z" fill="#f7edb8"/>
  <circle cx="95" cy="86" r="34" fill="#8fd147" stroke="#145e46" stroke-width="8"/>
  <circle cx="185" cy="86" r="34" fill="#8fd147" stroke="#145e46" stroke-width="8"/>
  <circle cx="95" cy="86" r="14" fill="#fffdf2"/>
  <circle cx="185" cy="86" r="14" fill="#fffdf2"/>
  <circle cx="98" cy="89" r="7" fill="#172230"/>
  <circle cx="182" cy="89" r="7" fill="#172230"/>
  <path d="M93 122c19 19 75 19 94 0" fill="none" stroke="#145e46" stroke-width="8" stroke-linecap="round"/>
  <path d="M120 133c11 8 28 8 39 0-2 18-36 19-39 0Z" fill="#ed6d78"/>
  <path d="M119 57c9-11 24-16 37-11" fill="none" stroke="#d7f59d" stroke-width="7" stroke-linecap="round"/>
</svg>
